<svg xmlns="http://www.w3.org/2000/svg" viewBox="0 0 600 400" width="600" height="400" role="img" aria-labelledby="t">
<title id="t">ruri</title>
<!-- the README banner: the thinking indicator's dragon (web/src/components/Thinking.tsx)
     in a manga panel on the app's paper, his neck running out of the frame -->
<defs><clipPath id="panel"><rect x="10" y="10" width="580" height="380" rx="6"/></clipPath></defs>
<rect x="10" y="10" width="580" height="380" rx="6" fill="#f6f1e6"/>
<g clip-path="url(#panel)">
  <g stroke="#191510" stroke-width="2" stroke-linecap="round" opacity="0.22">
    <path d="M40 60 L120 80 M36 110 L110 118 M44 300 L118 284 M40 340 L104 318"/>
    <path d="M560 70 L486 92 M566 124 L494 128 M556 290 L486 270 M562 336 L500 312"/>
  </g>
  <g transform="translate(135.9,47.8) scale(0.68)">
    <g transform="translate(0,512) scale(0.1,-0.1)" fill="#191510"><path d="M3912 4933 c-46 -22 -81 -68 -88 -114 -5 -32 -16 -48 -53 -77 -95 -76 -178 -170 -245 -277 -118 -187 -231 -358 -275 -413 -49 -62 -31 -63 -219 14 -181 74 -529 187 -1028 333 -213 62 -529 169 -637 214 -21 9 -60 31 -85 49 -40 28 -55 33 -108 33 -50 0 -66 -4 -96 -27 -19 -15 -41 -42 -49 -60 -7 -18 -24 -48 -36 -67 -35 -51 -61 -144 -273 -961 -161 -625 -175 -701 -134 -770 61 -105 212 -109 274 -8 11 18 29 76 41 128 12 52 26 104 32 115 20 40 110 176 113 172 2 -2 15 -120 29 -263 47 -505 48 -509 107 -540 17 -9 57 -19 88 -21 111 -10 159 34 345 317 128 195 247 350 338 438 l54 54 7 -124 c4 -67 16 -224 27 -347 21 -241 35 -297 88 -374 59 -87 113 -110 191 -82 79 28 136 74 230 185 93 111 374 390 392 390 6 0 8 -14 5 -32 -4 -18 -9 -200 -13 -405 l-7 -372 -26 18 c-65 47 -164 65 -224 42 -65 -25 -265 -227 -443 -449 l-83 -103 -10 38 c-38 133 -82 397 -96 573 -8 107 -20 212 -26 233 -31 111 -159 161 -250 97 -32 -23 -68 -89 -69 -124 0 -10 -22 -54 -49 -96 -47 -73 -117 -229 -231 -515 -28 -71 -54 -134 -57 -138 -3 -5 -33 44 -67 110 -111 212 -300 519 -342 554 -34 30 -62 32 -109 9 -57 -28 -101 -81 -115 -139 -18 -75 -23 -593 -11 -1115 13 -554 19 -615 60 -666 34 -42 83 -77 125 -88 55 -15 820 22 1121 54 77 9 263 18 413 21 l272 6 0 -120 c0 -66 3 -148 6 -182 l7 -61 182 0 182 0 6 107 c24 391 -7 520 -143 588 -30 16 -54 17 -195 12 -88 -3 -212 -11 -275 -16 -169 -15 -475 -39 -640 -51 -139 -10 -637 -30 -747 -30 l-53 0 1 328 c1 180 4 358 8 395 l6 68 71 -128 c86 -154 103 -168 210 -168 62 1 76 4 108 28 74 57 144 183 251 455 38 95 72 169 75 165 3 -5 16 -63 28 -130 12 -67 35 -177 51 -245 17 -67 35 -154 41 -192 14 -91 31 -128 71 -157 46 -32 132 -38 176 -10 17 11 92 100 166 199 74 98 198 247 276 330 l141 151 56 -77 c31 -42 83 -105 115 -139 36 -37 59 -70 59 -84 0 -37 46 -105 84 -123 19 -9 56 -16 84 -16 62 0 109 30 138 86 20 40 21 62 27 425 6 437 -8 1334 -22 1394 -5 21 -20 46 -32 56 -50 38 -206 51 -293 25 -51 -15 -123 -78 -404 -348 -85 -82 -157 -148 -162 -148 -10 0 -28 97 -35 190 -3 41 -7 198 -9 349 -5 314 -2 306 -96 354 -88 45 -129 39 -231 -32 -105 -73 -357 -330 -489 -499 -52 -67 -98 -121 -101 -122 -3 0 -9 127 -12 283 -4 155 -11 300 -16 321 -18 73 -145 176 -218 176 -16 0 -38 -7 -49 -15 -10 -8 -22 -15 -26 -15 -13 0 35 147 113 341 43 109 79 204 79 210 0 13 -48 28 490 -149 938 -310 992 -329 1172 -414 203 -96 250 -105 337 -68 64 28 121 90 233 254 71 105 235 326 242 326 1 0 2 -127 1 -282 0 -312 7 -358 62 -430 40 -52 73 -68 135 -68 116 1 211 61 472 304 99 91 181 164 183 162 4 -4 -66 -336 -97 -454 -11 -44 -67 -239 -126 -433 -152 -509 -179 -632 -229 -1029 -29 -228 -90 -547 -131 -685 -49 -166 -73 -269 -93 -403 -12 -74 -23 -137 -25 -140 -2 -4 0 -38 5 -76 7 -53 15 -76 33 -95 14 -14 32 -42 40 -62 19 -45 114 -222 219 -407 l80 -142 154 0 c117 0 153 3 153 13 0 33 -90 197 -319 582 -83 139 -101 177 -101 210 0 57 40 215 120 475 81 260 97 333 150 682 50 329 76 442 162 712 138 430 160 503 219 728 124 472 216 887 226 1015 6 78 4 85 -21 123 -37 56 -79 80 -141 80 -65 0 -104 -25 -148 -92 -19 -29 -72 -89 -118 -133 -71 -67 -152 -131 -466 -369 l-25 -19 7 147 c14 273 20 636 12 668 -27 101 -144 156 -235 111z M3749 3281 c-50 -31 -122 -129 -140 -192 -10 -33 -9 -47 11 -101 12 -35 31 -75 41 -89 56 -79 300 -103 383 -38 39 31 78 120 83 193 8 91 -2 131 -44 177 -57 63 -97 79 -201 79 -80 0 -92 -3 -133 -29z"/></g>
  </g>
</g>
<rect x="10" y="10" width="580" height="380" rx="6" fill="none" stroke="#191510" stroke-width="8"/>
</svg>
